<?xml version="1.0" encoding="utf-8"?>
<!-- Generator: Adobe Illustrator 19.2.0, SVG Export Plug-In . SVG Version: 6.00 Build 0)  -->
<svg version="1.1" id="Layer_1" xmlns="http://www.w3.org/2000/svg" xmlns:xlink="http://www.w3.org/1999/xlink" x="0px" y="0px"
	 viewBox="0 0 216 128" style="enable-background:new 0 0 216 128;" xml:space="preserve">
<style type="text/css">
	.st0{fill:#444748;}
	.st1{fill:#232527;}
	.st2{fill:#77797B;}
	.st3{fill:#7FAFDE;stroke:#7FAFDE;stroke-width:0.9414;stroke-miterlimit:10;}
	.st4{fill:#7FAFDE;}
</style>
<path class="st0" d="M156.6,64.4c-0.2,0.1-0.5,0.2-0.7,0.3c-0.3,1-0.5,2-0.8,2.9c-4.2,13.5-11.7,26.2-21.7,34.4
	c9.9-6.5,18-17.2,23.7-28.4l0.7-1.4l1.4-0.5c4.5-1.6,9-3.5,13.3-5.6c8.2-4,15.7-8.8,22.6-14.3c0.7-1.8,1.4-3.6,2-5.5
	c1.7-5.5,2.9-11.1,3.7-16.7C189,43.8,174.2,55.8,156.6,64.4z"/>
<path class="st1" d="M173.4,70.3c-4.5,2.2-9.1,4.1-13.7,5.8c-13.4,26.8-23.7,30.5-50.7,43c39.5-7.5,82.1-23.4,99.6-74.3
	C198.7,54.9,186.9,63.6,173.4,70.3z"/>
<path class="st2" d="M143,37.5c4.8,14.2,10,34.5-2.9,52.1c4.9-6.7,9.7-13.8,12.4-22.5c0.2-0.6,0.4-1.5,0.7-2.7l0.7-2.6l2.4-1.1
	c0.4-0.2,0.6-0.3,0.6-0.3l0,0c12.5-6.2,23.6-14.1,33.1-23.3c2.2-12,2.8-21.9,1.1-33.6C185.8,15.5,168.8,26.8,143,37.5z"/>
<g>
	<g>
		<path class="st3" d="M41.7,74.3c4.8,0,7.1-2,7.1-4c0-2.9-3-4.1-6.9-5.5c-3.3-1.2-7.4-2.5-7.4-5.9c0-2.9,3.2-4.8,7.1-4.8
			c2,0,5,0.7,6.9,2.6l0.2,0.2v1h-1.1v-0.6c-1.6-1.4-4-2.1-6-2.1c-3.3,0-6,1.5-6,3.7c0,2.4,2.7,3.5,6.6,4.9c3.3,1.2,7.6,2.7,7.6,6.6
			c0,2.9-3.2,5.1-8.2,5.1c-3.5,0-8.5-2.2-9.8-3.4l-0.2-0.2v-1h1.1v0.6C34.1,72.5,38.8,74.3,41.7,74.3z"/>
	</g>
	<g>
		<path class="st3" d="M61.9,55.1c-5.3,0-9.6,4.3-9.6,9.6c0,5.3,4.3,9.6,9.6,9.6c2.1,0,3.9-0.6,5.5-1.7l0.7,0.9
			c-1.7,1.2-3.9,2-6.2,2c-5.9,0-10.7-4.8-10.7-10.7C51.2,58.8,56,54,61.9,54c2.2,0,4.3,0.7,6,1.9l0.2,0.2v1h-1.1v-0.4
			C65.6,55.7,63.8,55.1,61.9,55.1z"/>
	</g>
	<g>
		<path class="st3" d="M89.8,64.7c0,5.9-4.8,10.7-10.7,10.7c-5.9,0-10.7-4.8-10.7-10.7c0-5.9,4.8-10.7,10.7-10.7
			C85,54,89.8,58.8,89.8,64.7z M79.1,74.3c5.3,0,9.6-4.3,9.6-9.6c0-5.3-4.3-9.6-9.6-9.6c-5.3,0-9.6,4.3-9.6,9.6
			C69.6,70,73.9,74.3,79.1,74.3z"/>
	</g>
	<g>
		<path class="st3" d="M101.9,68l3.2,5c0.6,0.9,0.9,1.1,1.7,1.1h1.3v1.1h-1.3c-1.1,0-1.8-0.3-2.6-1.6l-3.2-4.9
			c-1.3-2.1-1.7-2.2-4.4-2.2h-2.7v8.8h-1.1V55.4h-0.5v-1.1h7.8c4.6,0,7,3,7,6c0,3-2.4,5.7-6.9,5.7h0v0h0
			C100.7,66.4,101.2,67,101.9,68z M105.8,60.3c0-2.4-1.9-4.9-5.9-4.9h-6.2v9.9h6.2C103.9,65.3,105.8,62.8,105.8,60.3z"/>
	</g>
	<g>
		<path class="st3" d="M110.4,74l2.5-19.9h0.9l9.5,19.8l9.5-19.8h0.9l2.8,20.9l-1.1,0.2l-2.5-18.7l-9,18.9h-1.1l-9-18.9l-2.3,18.6
			h-1.3V74H110.4z"/>
	</g>
</g>
<g>
	<path class="st4" d="M58.6,79.6V81h-1v-0.4h-2.6v8.7h-1v-8.7h-2.6V81h-1v-1.4H58.6z"/>
	<path class="st4" d="M70.2,84.5c0,2.8-2.3,5.1-5.1,5.1c-2.8,0-5.1-2.3-5.1-5.1c0-2.8,2.3-5.1,5.1-5.1C68,79.4,70.2,81.7,70.2,84.5z
		 M65.1,88.5c2.3,0,4.1-1.8,4.1-4.1c0-2.3-1.8-4.1-4.1-4.1c-2.3,0-4.1,1.8-4.1,4.1C61.1,86.7,62.9,88.5,65.1,88.5z"/>
	<path class="st4" d="M82.9,84.5c0,2.8-2.3,5.1-5.1,5.1c-2.8,0-5.1-2.3-5.1-5.1c0-2.8,2.3-5.1,5.1-5.1
		C80.6,79.4,82.9,81.7,82.9,84.5z M77.8,88.5c2.3,0,4.1-1.8,4.1-4.1c0-2.3-1.8-4.1-4.1-4.1c-2.3,0-4.1,1.8-4.1,4.1
		C73.7,86.7,75.5,88.5,77.8,88.5z"/>
	<path class="st4" d="M91.4,88.3v-0.4h1v1.4h-6.6v-9.7h1v8.7H91.4z"/>
	<path class="st4" d="M102.5,88.3v1c-0.9,0-1.2-0.3-1.5-0.6L98,85.1l-1.5,1.8v2.4h-1v-9.7h1v5.7l4.8-5.7h1.1v1h-0.6l-3.1,3.6
		l3.2,3.8C102,88.2,102,88.3,102.5,88.3z"/>
	<path class="st4" d="M105.5,89.3v-9.7h1v9.7H105.5z"/>
	<path class="st4" d="M117.6,79.6V81h-1v-0.4H114v8.7h-1v-8.7h-2.6V81h-1v-1.4H117.6z"/>
</g>
</svg>
