<?xml version="1.0" encoding="utf-8"?>
<!-- Generator: Adobe Illustrator 19.2.0, SVG Export Plug-In . SVG Version: 6.00 Build 0)  -->
<svg version="1.1" id="Layer_1" xmlns="http://www.w3.org/2000/svg" xmlns:xlink="http://www.w3.org/1999/xlink" x="0px" y="0px"
	 viewBox="0 0 234.5 133" style="enable-background:new 0 0 234.5 133;" xml:space="preserve">
<style type="text/css">
	.st0{fill:#8DC1E8;}
	.st1{fill:#939393;}
	.st2{fill:#5B5C5C;}
	.st3{fill:#BFBFBF;}
	.st4{fill:#FFFFFF;stroke:#FFFFFF;stroke-width:0.9414;stroke-miterlimit:10;}
	.st5{fill:#FFFFFF;}
</style>
<path class="st0" d="M197.9,22.6c-7.9-7.9-19.6-12.9-30.4-15.2c-29.3-6.1-58,8.1-71.4,32.9c-19.6-1.4-37.7,10.8-43.4,29.5
	C46.3,75.7,42.5,83,42.5,91c0,19.3,22.4,35,50,35c1.9,0,3.7-0.1,5.5-0.2c37.4,5.3,62.2-16.2,68.1-44.6c4.3-20.6-6.2-39.2-6.2-39.2
	S182.8,33.3,197.9,22.6z"/>
<path class="st1" d="M178.1,70.9c-0.2,0.1-0.5,0.2-0.7,0.3c-0.3,1-0.5,2-0.8,2.9c-4.2,13.5-11.7,26.2-21.7,34.4
	c9.9-6.5,18-17.2,23.7-28.4l0.7-1.4l1.4-0.5c4.5-1.6,9-3.5,13.3-5.6c8.2-4,15.7-8.8,22.6-14.3c0.7-1.8,1.4-3.6,2-5.5
	c1.7-5.5,2.9-11.1,3.7-16.7C210.5,50.3,195.7,62.3,178.1,70.9z"/>
<path class="st2" d="M194.9,76.8c-4.5,2.2-9.1,4.1-13.7,5.8c-13.4,26.8-23.7,30.5-50.7,43c39.5-7.5,82.1-23.4,99.6-74.3
	C220.2,61.4,208.4,70.1,194.9,76.8z"/>
<path class="st3" d="M164.5,44c4.8,14.2,10,34.5-2.9,52.1c4.9-6.7,9.7-13.8,12.4-22.5c0.2-0.6,0.4-1.5,0.7-2.7l0.7-2.6l2.4-1.1
	c0.4-0.2,0.6-0.3,0.6-0.3l0,0c12.5-6.2,23.6-14.1,33.1-23.3c2.2-12,2.8-21.9,1.1-33.6C207.3,22,190.3,33.3,164.5,44z"/>
<g>
	<g>
		<g>
			<path class="st4" d="M65.4,85.5c4.8,0,7.1-2,7.1-4c0-2.9-3-4.1-6.9-5.5c-3.3-1.2-7.4-2.5-7.4-5.9c0-2.9,3.2-4.8,7.1-4.8
				c2,0,5,0.7,6.9,2.6l0.2,0.2v1h-1.1v-0.6c-1.6-1.4-4-2.1-6-2.1c-3.3,0-6,1.5-6,3.7c0,2.4,2.7,3.5,6.6,4.9c3.3,1.2,7.6,2.7,7.6,6.6
				c0,2.9-3.2,5.1-8.2,5.1c-3.5,0-8.5-2.2-9.8-3.4l-0.2-0.2v-1h1.1v0.6C57.8,83.7,62.5,85.5,65.4,85.5z"/>
		</g>
		<g>
			<path class="st4" d="M85.6,66.3c-5.3,0-9.6,4.3-9.6,9.6c0,5.3,4.3,9.6,9.6,9.6c2.1,0,3.9-0.6,5.5-1.7l0.7,0.9
				c-1.7,1.2-3.9,2-6.2,2c-5.9,0-10.7-4.8-10.7-10.7c0-5.9,4.8-10.7,10.7-10.7c2.2,0,4.3,0.7,6,1.9l0.2,0.2v1h-1.1v-0.4
				C89.3,66.9,87.5,66.3,85.6,66.3z"/>
		</g>
		<g>
			<path class="st4" d="M113.5,75.9c0,5.9-4.8,10.7-10.7,10.7c-5.9,0-10.7-4.8-10.7-10.7c0-5.9,4.8-10.7,10.7-10.7
				C108.7,65.2,113.5,70,113.5,75.9z M102.9,85.5c5.3,0,9.6-4.3,9.6-9.6c0-5.3-4.3-9.6-9.6-9.6c-5.3,0-9.6,4.3-9.6,9.6
				C93.3,81.2,97.6,85.5,102.9,85.5z"/>
		</g>
		<g>
			<path class="st4" d="M125.6,79.2l3.2,5c0.6,0.9,0.9,1.1,1.7,1.1h1.3v1.1h-1.3c-1.1,0-1.8-0.3-2.6-1.6l-3.2-4.9
				c-1.3-2.1-1.7-2.2-4.4-2.2h-2.7v8.8h-1.1V66.6h-0.5v-1.1h7.8c4.6,0,7,3,7,6c0,3-2.4,5.7-6.9,5.7h0v0h0
				C124.4,77.6,125,78.2,125.6,79.2z M129.5,71.5c0-2.4-1.9-4.9-5.9-4.9h-6.2v9.9h6.2C127.6,76.5,129.5,74,129.5,71.5z"/>
		</g>
		<g>
			<path class="st4" d="M134.1,85.2l2.5-19.9h0.9l9.5,19.8l9.5-19.8h0.9l2.8,20.9l-1.1,0.2l-2.5-18.7l-9,18.9h-1.1l-9-18.9L135,86.3
				h-1.3v-1.1H134.1z"/>
		</g>
	</g>
	<g>
		<path class="st5" d="M82.3,90.8v1.4h-1v-0.4h-2.6v8.7h-1v-8.7h-2.6v0.4h-1v-1.4H82.3z"/>
		<path class="st5" d="M93.9,95.7c0,2.8-2.3,5.1-5.1,5.1c-2.8,0-5.1-2.3-5.1-5.1c0-2.8,2.3-5.1,5.1-5.1
			C91.7,90.6,93.9,92.9,93.9,95.7z M88.8,99.7c2.3,0,4.1-1.8,4.1-4.1c0-2.3-1.8-4.1-4.1-4.1c-2.3,0-4.1,1.8-4.1,4.1
			C84.8,97.9,86.6,99.7,88.8,99.7z"/>
		<path class="st5" d="M106.6,95.7c0,2.8-2.3,5.1-5.1,5.1c-2.8,0-5.1-2.3-5.1-5.1c0-2.8,2.3-5.1,5.1-5.1
			C104.3,90.6,106.6,92.9,106.6,95.7z M101.5,99.7c2.3,0,4.1-1.8,4.1-4.1c0-2.3-1.8-4.1-4.1-4.1c-2.3,0-4.1,1.8-4.1,4.1
			C97.4,97.9,99.2,99.7,101.5,99.7z"/>
		<path class="st5" d="M115.1,99.5v-0.4h1v1.4h-6.6v-9.7h1v8.7H115.1z"/>
		<path class="st5" d="M126.2,99.5v1c-0.9,0-1.2-0.3-1.5-0.6l-3.1-3.6l-1.5,1.8v2.4h-1v-9.7h1v5.7l4.8-5.7h1.1v1h-0.6l-3.1,3.6
			l3.2,3.8C125.7,99.4,125.7,99.5,126.2,99.5z"/>
		<path class="st5" d="M129.2,100.5v-9.7h1v9.7H129.2z"/>
		<path class="st5" d="M141.3,90.8v1.4h-1v-0.4h-2.6v8.7h-1v-8.7h-2.6v0.4h-1v-1.4H141.3z"/>
	</g>
</g>
</svg>
