<?xml version="1.0" encoding="utf-8"?>
<!-- Generator: Adobe Illustrator 19.2.0, SVG Export Plug-In . SVG Version: 6.00 Build 0)  -->
<svg version="1.1" id="Layer_1" xmlns="http://www.w3.org/2000/svg" xmlns:xlink="http://www.w3.org/1999/xlink" x="0px" y="0px"
	 viewBox="0 0 216 139" style="enable-background:new 0 0 216 139;" xml:space="preserve">
<style type="text/css">
	.st0{fill:#9DC0E5;}
	.st1{fill:#8BB6E1;}
	.st2{fill:#BCD2ED;}
	.st3{fill:#FFFFFF;stroke:#FFFFFF;stroke-width:0.9414;stroke-miterlimit:10;}
	.st4{fill:#FFFFFF;}
</style>
<path class="st0" d="M156.6,66.9c-0.2,0.1-0.5,0.2-0.7,0.3c-0.3,1-0.5,2-0.8,2.9c-4.2,13.5-11.7,26.2-21.7,34.4
	c9.9-6.5,18-17.2,23.7-28.4l0.7-1.4l1.4-0.5c4.5-1.6,9-3.5,13.3-5.6c8.2-4,15.7-8.8,22.6-14.3c0.7-1.8,1.4-3.6,2-5.5
	c1.7-5.5,2.9-11.1,3.7-16.7C189,46.3,174.2,58.3,156.6,66.9z"/>
<path class="st1" d="M173.4,72.8c-4.5,2.2-9.1,4.1-13.7,5.8c-13.4,26.8-23.7,30.5-50.7,43c39.5-7.5,82.1-23.4,99.6-74.3
	C198.7,57.4,186.9,66.1,173.4,72.8z"/>
<path class="st2" d="M143,40c4.8,14.2,10,34.5-2.9,52.1c4.9-6.7,9.7-13.8,12.4-22.5c0.2-0.6,0.4-1.5,0.7-2.7l0.7-2.6l2.4-1.1
	c0.4-0.2,0.6-0.3,0.6-0.3l0,0c12.5-6.2,23.6-14.1,33.1-23.3c2.2-12,2.8-21.9,1.1-33.6C185.8,18,168.8,29.3,143,40z"/>
<g>
	<g>
		<g>
			<path class="st3" d="M43.9,81.5c4.8,0,7.1-2,7.1-4c0-2.9-3-4.1-6.9-5.5c-3.3-1.2-7.4-2.5-7.4-5.9c0-2.9,3.2-4.8,7.1-4.8
				c2,0,5,0.7,6.9,2.6L51,64v1h-1.1v-0.6c-1.6-1.4-4-2.1-6-2.1c-3.3,0-6,1.5-6,3.7c0,2.4,2.7,3.5,6.6,4.9c3.3,1.2,7.6,2.7,7.6,6.6
				c0,2.9-3.2,5.1-8.2,5.1c-3.5,0-8.5-2.2-9.8-3.4L34,79.1v-1h1.1v0.6C36.3,79.7,41,81.5,43.9,81.5z"/>
		</g>
		<g>
			<path class="st3" d="M64.1,62.3c-5.3,0-9.6,4.3-9.6,9.6c0,5.3,4.3,9.6,9.6,9.6c2.1,0,3.9-0.6,5.5-1.7l0.7,0.9
				c-1.7,1.2-3.9,2-6.2,2c-5.9,0-10.7-4.8-10.7-10.7c0-5.9,4.8-10.7,10.7-10.7c2.2,0,4.3,0.7,6,1.9l0.2,0.2v1h-1.1v-0.4
				C67.8,62.9,66,62.3,64.1,62.3z"/>
		</g>
		<g>
			<path class="st3" d="M92,71.9c0,5.9-4.8,10.7-10.7,10.7c-5.9,0-10.7-4.8-10.7-10.7c0-5.9,4.8-10.7,10.7-10.7
				C87.2,61.2,92,66,92,71.9z M81.4,81.5c5.3,0,9.6-4.3,9.6-9.6c0-5.3-4.3-9.6-9.6-9.6c-5.3,0-9.6,4.3-9.6,9.6
				C71.8,77.2,76.1,81.5,81.4,81.5z"/>
		</g>
		<g>
			<path class="st3" d="M104.1,75.2l3.2,5c0.6,0.9,0.9,1.1,1.7,1.1h1.3v1.1H109c-1.1,0-1.8-0.3-2.6-1.6l-3.2-4.9
				c-1.3-2.1-1.7-2.2-4.4-2.2H96v8.8h-1.1V62.6h-0.5v-1.1h7.8c4.6,0,7,3,7,6c0,3-2.4,5.7-6.9,5.7h0v0h0
				C102.9,73.6,103.5,74.2,104.1,75.2z M108,67.5c0-2.4-1.9-4.9-5.9-4.9H96v9.9h6.2C106.1,72.5,108,70,108,67.5z"/>
		</g>
		<g>
			<path class="st3" d="M112.6,81.2l2.5-19.9h0.9l9.5,19.8l9.5-19.8h0.9l2.8,20.9l-1.1,0.2l-2.5-18.7l-9,18.9h-1.1l-9-18.9
				l-2.3,18.6h-1.3v-1.1H112.6z"/>
		</g>
	</g>
	<g>
		<path class="st4" d="M60.8,86.8v1.4h-1v-0.4h-2.6v8.7h-1v-8.7h-2.6v0.4h-1v-1.4H60.8z"/>
		<path class="st4" d="M72.4,91.7c0,2.8-2.3,5.1-5.1,5.1c-2.8,0-5.1-2.3-5.1-5.1c0-2.8,2.3-5.1,5.1-5.1
			C70.2,86.6,72.4,88.9,72.4,91.7z M67.3,95.7c2.3,0,4.1-1.8,4.1-4.1c0-2.3-1.8-4.1-4.1-4.1c-2.3,0-4.1,1.8-4.1,4.1
			C63.3,93.9,65.1,95.7,67.3,95.7z"/>
		<path class="st4" d="M85.1,91.7c0,2.8-2.3,5.1-5.1,5.1c-2.8,0-5.1-2.3-5.1-5.1c0-2.8,2.3-5.1,5.1-5.1
			C82.8,86.6,85.1,88.9,85.1,91.7z M80,95.7c2.3,0,4.1-1.8,4.1-4.1c0-2.3-1.8-4.1-4.1-4.1c-2.3,0-4.1,1.8-4.1,4.1
			C75.9,93.9,77.7,95.7,80,95.7z"/>
		<path class="st4" d="M93.6,95.5v-0.4h1v1.4H88v-9.7h1v8.7H93.6z"/>
		<path class="st4" d="M104.7,95.5v1c-0.9,0-1.2-0.3-1.5-0.6l-3.1-3.6l-1.5,1.8v2.4h-1v-9.7h1v5.7l4.8-5.7h1.1v1h-0.6l-3.1,3.6
			l3.2,3.8C104.2,95.4,104.2,95.5,104.7,95.5z"/>
		<path class="st4" d="M107.7,96.5v-9.7h1v9.7H107.7z"/>
		<path class="st4" d="M119.8,86.8v1.4h-1v-0.4h-2.6v8.7h-1v-8.7h-2.6v0.4h-1v-1.4H119.8z"/>
	</g>
</g>
</svg>
