<?xml version="1.0" encoding="utf-8"?>
<!-- Generator: Adobe Illustrator 19.2.0, SVG Export Plug-In . SVG Version: 6.00 Build 0)  -->
<svg version="1.1" id="Artwork" xmlns="http://www.w3.org/2000/svg" xmlns:xlink="http://www.w3.org/1999/xlink" x="0px" y="0px"
	 viewBox="0 0 512 512" style="enable-background:new 0 0 512 512;" xml:space="preserve">
<style type="text/css">
	.st0{fill:#FFFFFF;}
</style>
<g>
	<path class="st0" d="M144.2,191.6H64.9c-1.6,0-3,0-3.3,0c-5.5,0-8.2,4.1-8.2,8.6c0,4.5,3.1,8.6,8.2,8.6c0.2,0,1.7,0,3.3,0h79.3
		c1.6,0,2.8-1.3,2.8-2.8v-11.6C147,192.9,145.7,191.6,144.2,191.6z"/>
	<path class="st0" d="M144.2,226H82.5c-1.6,0-3,0-3.3,0c-5.5,0-8.2,4.1-8.2,8.6c0,4.5,3.1,8.6,8.2,8.6c0.2,0,1.7,0,3.3,0h61.7
		c1.6,0,2.8-1.3,2.8-2.8v-11.6C147,227.3,145.7,226,144.2,226z"/>
	<path class="st0" d="M144.2,260.9H102c-1.6,0-3,0-3.3,0c-5.5,0-8.2,4.1-8.2,8.6c0,4.5,3.1,8.6,8.2,8.6c0.2,0,1.7,0,3.3,0h42.2
		c1.6,0,2.8-1.3,2.8-2.8v-11.6C147,262.2,145.7,260.9,144.2,260.9z"/>
	<path class="st0" d="M443.9,218l-4.9-1.3c-2-0.6-4.2-2.5-4.9-4.4c-0.7-1.9-2.1-8.1-1.1-9.9l2.5-4.3c1-1.8,0.7-4.5-0.8-5.9
		l-12.9-12.9c-1.5-1.5-4.1-1.8-5.9-0.8l-4.1,2.3c-1.8,1-4.8,1.1-6.7,0.2l-4-1.7c-1.9-0.7-4-2.9-4.5-4.9l-1.4-5
		c-0.5-2-2.7-3.6-4.8-3.6h-18.2c-2.1,0-4.2,1.6-4.8,3.6l-1.4,5c-0.5,2-2.6,4.2-4.5,4.9l-4.3,1.8c-1.9,0.9-4.8,0.8-6.6-0.2l-3.8-2.2
		c-1.8-1-4.5-0.7-5.9,0.8L328,192.3c-1.5,1.5-1.8,4.1-0.8,5.9l2.4,4.2c1,1.8,1.2,4.7,0.4,6.5s-4.1,7.1-6.1,7.6l-4.9,1.3
		c-2,0.6-3.6,2.7-3.6,4.8v18.2c0,2.1,1.6,4.2,3.6,4.8l4.9,1.3c2,0.6,5.4,6.1,6.3,8c0.9,1.8,0.8,4.8-0.3,6.6l-2.2,3.9
		c-1,1.8-0.7,4.5,0.8,5.9l12.9,12.9c1.5,1.5,4.1,1.8,5.9,0.8l3.7-2.1c1.8-1,4.8-1.1,6.7-0.2l4,1.7c1.9,0.7,4,2.9,4.5,4.9l1.3,4.7
		c0.5,2,2.7,3.6,4.8,3.6h18.2c2.1,0,4.2-1.6,4.8-3.6l1.3-4.7c0.5-2,2.6-4.2,4.5-4.9l3.7-1.5c1.9-0.9,4.9-0.8,6.7,0.2l4,2.2
		c1.8,1,4.5,0.7,5.9-0.8l12.9-12.9c1.5-1.5,1.8-4.1,0.8-5.9l-2.2-4c-1-1.8-1.1-4.8-0.2-6.7l1.5-3.7c0.7-1.9,2.9-4,4.9-4.5l4.9-1.3
		c2-0.6,3.6-2.7,3.6-4.8v-18.2C447.5,220.7,445.9,218.5,443.9,218z M381.4,265.9c-18.9,0-34.2-15.3-34.2-34.2
		c0-18.9,15.3-34.2,34.2-34.2s34.2,15.3,34.2,34.2C415.6,250.6,400.3,265.9,381.4,265.9z"/>
	<path class="st0" d="M387,312c0,0-12.9,0-13.2,0c0,0-2.4,0-2.4,4.1c0,17.6,0,70.3,0,70.3c0,2.8-2.3,5.1-5,5.1H182.5
		c-2.8,0-5-2.3-5-5.1V129.6c0-2.8,2.3-5.1,5-5.1h183.9c2.8,0,5,2.3,5,5.1c0,0,0,13.9,0,18.5c0,3.4,3,3.3,3,3.3c0.3,0,12.5,0,12.5,0
		s2.6,0,2.6-3.1c0-11.2,0-45,0-45c0-11.7-9.5-21.2-21.2-21.2h-188c-11.7,0-21.2,9.5-21.2,21.2v309c0,11.7,9.5,21.2,21.2,21.2h188
		c11.7,0,21.2-9.5,21.2-21.2c0,0,0-72.1,0-96.1C389.6,312.1,387,312,387,312z M251.2,103.7h46.4c2.2,0,4,1.8,4,4c0,2.2-1.8,4-4,4
		h-46.4c-2.2,0-4-1.8-4-4C247.2,105.5,249,103.7,251.2,103.7z M277.3,417.4h-5.8c-3.9-1.2-6.7-4.8-6.7-9.1c0-5.3,4.3-9.5,9.5-9.5
		c5.3,0,9.6,4.3,9.6,9.5C284,412.5,281.2,416.2,277.3,417.4z"/>
</g>
</svg>
